<svg width="99" height="44" viewBox="0 0 99 44" fill="none" xmlns="http://www.w3.org/2000/svg">
<path fill-rule="evenodd" clip-rule="evenodd" d="M35.4954 29.0614C35.3783 28.6242 35.5694 28.1629 35.9613 27.9366L43.5 23.5841C44.1667 23.1992 44.1667 22.237 43.5 21.8521L35.6108 17.2973C35.2189 17.071 35.0278 16.6096 35.1449 16.1724L37.5483 7.20284C37.7476 6.45927 37.0671 5.77885 36.3236 5.97809L27.8729 8.24243C27.4358 8.35957 26.9744 8.16847 26.7481 7.7765L22.547 0.500001C22.1621 -0.166666 21.1999 -0.166667 20.815 0.5L16.7109 7.60851C16.4846 8.00048 16.0232 8.19158 15.586 8.07443L7.76237 5.97809C7.0188 5.77885 6.33839 6.45926 6.53762 7.20283L8.9295 16.1295C9.04665 16.5666 8.85555 17.028 8.46358 17.2543L0.500001 21.8521C-0.166666 22.237 -0.166667 23.1992 0.499999 23.5841L8.11309 27.9795C8.50505 28.2058 8.69615 28.6672 8.57901 29.1044L6.53762 36.7229C6.33839 37.4665 7.0188 38.1469 7.76237 37.9477L15.5485 35.8614C15.9857 35.7442 16.4471 35.9353 16.6734 36.3273L20.8145 43.5C21.1994 44.1667 22.1617 44.1667 22.5466 43.5L26.7848 36.1591C27.0111 35.7672 27.4725 35.5761 27.9097 35.6932L36.3236 37.9477C37.0671 38.1469 37.7476 37.4665 37.5483 36.7229L35.4954 29.0614Z" fill="#A9E34B"/>
<path d="M53.7001 18V9.40181H56.0831L59.5223 15.0152H58.2695L61.6105 9.40181H63.9934L64.018 18H61.3771L61.3525 13.3815H61.7702L59.4855 17.2262H58.208L55.8251 13.3815H56.341V18H53.7001ZM64.486 18L68.2446 9.40181H71.0943L74.8529 18H71.8559L69.0799 10.7775H70.2099L67.4339 18H64.486ZM66.7215 16.5015L67.4585 14.4133H71.4137L72.1506 16.5015H66.7215ZM75.3156 18V9.40181H79.455C80.2575 9.40181 80.9494 9.53283 81.5308 9.79487C82.1204 10.0569 82.5749 10.4336 82.8943 10.9249C83.2136 11.4081 83.3733 11.9813 83.3733 12.6446C83.3733 13.3078 83.2136 13.8811 82.8943 14.3642C82.5749 14.8391 82.1204 15.2035 81.5308 15.4574C80.9494 15.7112 80.2575 15.8382 79.455 15.8382H76.9247L78.2144 14.6467V18H75.3156ZM80.4622 18L78.3495 14.8678H81.4203L83.5576 18H80.4622ZM78.2144 14.9661L76.9247 13.6518H79.2707C79.672 13.6518 79.9668 13.5617 80.1551 13.3815C80.3517 13.2014 80.4499 12.9557 80.4499 12.6446C80.4499 12.3334 80.3517 12.0877 80.1551 11.9076C79.9668 11.7274 79.672 11.6373 79.2707 11.6373H76.9247L78.2144 10.323V14.9661ZM84.4679 18V9.40181H87.3668V18H84.4679ZM87.8287 18L91.5874 9.40181H94.437L98.1957 18H95.1986L92.4226 10.7775H93.5527L90.7767 18H87.8287ZM90.0642 16.5015L90.8012 14.4133H94.7564L95.4934 16.5015H90.0642ZM55.88 28.224H61.8V29.248H55.88V28.224ZM56.008 34H54.824V22.8H62.504V23.824H56.008V34ZM68.0058 34.096C67.1738 34.096 66.3738 33.9627 65.6058 33.696C64.8484 33.4187 64.2618 33.0667 63.8458 32.64L64.3098 31.728C64.7044 32.112 65.2324 32.4373 65.8938 32.704C66.5658 32.96 67.2698 33.088 68.0058 33.088C68.7098 33.088 69.2804 33.0027 69.7178 32.832C70.1658 32.6507 70.4911 32.4107 70.6938 32.112C70.9071 31.8133 71.0138 31.4827 71.0138 31.12C71.0138 30.6827 70.8858 30.3307 70.6298 30.064C70.3844 29.7973 70.0591 29.5893 69.6538 29.44C69.2484 29.28 68.8004 29.1413 68.3098 29.024C67.8191 28.9067 67.3284 28.784 66.8378 28.656C66.3471 28.5173 65.8938 28.336 65.4778 28.112C65.0724 27.888 64.7418 27.5947 64.4858 27.232C64.2404 26.8587 64.1178 26.3733 64.1178 25.776C64.1178 25.2213 64.2618 24.7147 64.5498 24.256C64.8484 23.7867 65.3018 23.4133 65.9098 23.136C66.5178 22.848 67.2964 22.704 68.2458 22.704C68.8751 22.704 69.4991 22.7947 70.1178 22.976C70.7364 23.1467 71.2698 23.3867 71.7178 23.696L71.3177 24.64C70.8378 24.32 70.3258 24.0853 69.7818 23.936C69.2484 23.7867 68.7311 23.712 68.2298 23.712C67.5578 23.712 67.0031 23.8027 66.5658 23.984C66.1284 24.1653 65.8031 24.4107 65.5898 24.72C65.3871 25.0187 65.2858 25.36 65.2858 25.744C65.2858 26.1813 65.4084 26.5333 65.6538 26.8C65.9098 27.0667 66.2404 27.2747 66.6458 27.424C67.0618 27.5733 67.5151 27.7067 68.0058 27.824C68.4964 27.9413 68.9818 28.0693 69.4618 28.208C69.9524 28.3467 70.4004 28.528 70.8058 28.752C71.2218 28.9653 71.5524 29.2533 71.7978 29.616C72.0538 29.9787 72.1818 30.4533 72.1818 31.04C72.1818 31.584 72.0324 32.0907 71.7338 32.56C71.4351 33.0187 70.9764 33.392 70.3578 33.68C69.7498 33.9573 68.9658 34.096 68.0058 34.096ZM79.6255 34.096C78.7828 34.096 78.0042 33.9573 77.2895 33.68C76.5748 33.392 75.9562 32.992 75.4335 32.48C74.9108 31.968 74.5002 31.3653 74.2015 30.672C73.9135 29.9787 73.7695 29.2213 73.7695 28.4C73.7695 27.5787 73.9135 26.8213 74.2015 26.128C74.5002 25.4347 74.9108 24.832 75.4335 24.32C75.9668 23.808 76.5908 23.4133 77.3055 23.136C78.0202 22.848 78.7988 22.704 79.6415 22.704C80.4522 22.704 81.2148 22.8427 81.9295 23.12C82.6442 23.3867 83.2468 23.792 83.7375 24.336L82.9855 25.088C82.5268 24.6187 82.0202 24.2827 81.4655 24.08C80.9108 23.8667 80.3135 23.76 79.6735 23.76C79.0015 23.76 78.3775 23.8773 77.8015 24.112C77.2255 24.336 76.7242 24.6613 76.2975 25.088C75.8708 25.504 75.5348 25.9947 75.2895 26.56C75.0548 27.1147 74.9375 27.728 74.9375 28.4C74.9375 29.072 75.0548 29.6907 75.2895 30.256C75.5348 30.8107 75.8708 31.3013 76.2975 31.728C76.7242 32.144 77.2255 32.4693 77.8015 32.704C78.3775 32.928 79.0015 33.04 79.6735 33.04C80.3135 33.04 80.9108 32.9333 81.4655 32.72C82.0202 32.5067 82.5268 32.1653 82.9855 31.696L83.7375 32.448C83.2468 32.992 82.6442 33.4027 81.9295 33.68C81.2148 33.9573 80.4468 34.096 79.6255 34.096ZM90.9231 34.096C90.0805 34.096 89.2965 33.9573 88.5711 33.68C87.8565 33.392 87.2325 32.992 86.6991 32.48C86.1765 31.9573 85.7658 31.3547 85.4671 30.672C85.1791 29.9787 85.0351 29.2213 85.0351 28.4C85.0351 27.5787 85.1791 26.8267 85.4671 26.144C85.7658 25.4507 86.1765 24.848 86.6991 24.336C87.2325 23.8133 87.8565 23.4133 88.5711 23.136C89.2858 22.848 90.0698 22.704 90.9231 22.704C91.7658 22.704 92.5445 22.848 93.2591 23.136C93.9738 23.4133 94.5925 23.808 95.1151 24.32C95.6485 24.832 96.0591 25.4347 96.3471 26.128C96.6458 26.8213 96.7951 27.5787 96.7951 28.4C96.7951 29.2213 96.6458 29.9787 96.3471 30.672C96.0591 31.3653 95.6485 31.968 95.1151 32.48C94.5925 32.992 93.9738 33.392 93.2591 33.68C92.5445 33.9573 91.7658 34.096 90.9231 34.096ZM90.9231 33.04C91.5951 33.04 92.2138 32.928 92.7791 32.704C93.3551 32.4693 93.8511 32.144 94.2671 31.728C94.6938 31.3013 95.0245 30.8107 95.2591 30.256C95.4938 29.6907 95.6111 29.072 95.6111 28.4C95.6111 27.728 95.4938 27.1147 95.2591 26.56C95.0245 25.9947 94.6938 25.504 94.2671 25.088C93.8511 24.6613 93.3551 24.336 92.7791 24.112C92.2138 23.8773 91.5951 23.76 90.9231 23.76C90.2511 23.76 89.6271 23.8773 89.0511 24.112C88.4751 24.336 87.9738 24.6613 87.5471 25.088C87.1311 25.504 86.8005 25.9947 86.5551 26.56C86.3205 27.1147 86.2031 27.728 86.2031 28.4C86.2031 29.0613 86.3205 29.6747 86.5551 30.24C86.8005 30.8053 87.1311 31.3013 87.5471 31.728C87.9738 32.144 88.4751 32.4693 89.0511 32.704C89.6271 32.928 90.2511 33.04 90.9231 33.04Z" fill="#F8F9FA"/>
</svg>
